<svg id="Layer_5" enable-background="new 0 0 64 64" height="512" viewBox="0 0 64 64" width="512" xmlns="http://www.w3.org/2000/svg"><g><g><path d="m20.827 49.736-.513-.093c.712 2.467 1.689 4.674 2.868 6.517 3.549.555 6.517.84 8.818.84s5.269-.285 8.818-.84c1.179-1.843 2.156-4.05 2.868-6.517l-.513.093c-3.182.577-7.703 1.264-11.173 1.264s-7.991-.687-11.173-1.264z" fill="#f0bc5e"/></g><g><path d="m32 41c-4.152 0-9.803-.983-12.802-1.569l-.185-.036c-.003.202-.013.401-.013.605 0 1.902.143 3.748.411 5.509 3.079.585 8.503 1.491 12.589 1.491s9.51-.906 12.589-1.491c.268-1.761.411-3.607.411-5.509 0-.204-.01-.403-.014-.605l-.185.036c-2.998.586-8.649 1.569-12.801 1.569z" fill="#f0bc5e"/></g><g><path d="m32 31c-3.55 0-8.176-.712-11.474-1.318-.567 1.801-.99 3.747-1.244 5.802 2.985.571 8.558 1.516 12.718 1.516s9.733-.945 12.718-1.516c-.254-2.055-.677-4.002-1.244-5.802-3.298.606-7.924 1.318-11.474 1.318z" fill="#f0bc5e"/></g><g><path d="m37 19.689v.311s-3 2-5 2-5-2-5-2v-.311c-1.958 1.382-3.668 3.559-5.003 6.282l.317.052c3.936.648 7.195.977 9.686.977s5.75-.329 9.687-.977l.317-.052c-1.336-2.723-3.046-4.9-5.004-6.282z" fill="#f0bc5e"/></g><path d="m61.293 52.707 1.414-1.414-4.6-4.6 2.136-8.546-14.423-1.802c-.232-2.404-.694-4.698-1.35-6.819l8.755-1.751-2.102-8.409 5.518-4.598-1.28-1.536-6.482 5.402 1.898 7.591-6.963 1.393c-1.39-3.599-3.385-6.542-5.815-8.418-.012-1.53-.76-2.922-1.998-3.769v-.431c0-.78-.233-1.503-.621-2.12.938-2.842 3.759-9.88 8.62-9.88 1.979 0 4.438 3.344 5.143 4.515l1.714-1.03c-.336-.561-3.391-5.485-6.857-5.485-5.645 0-8.827 6.501-10.236 10.428-.534-.265-1.128-.428-1.764-.428-.609 0-1.181.148-1.698.392-1.415-3.93-4.596-10.392-10.223-10.392-3.466 0-6.521 4.924-6.857 5.485l1.714 1.03c.705-1.171 3.163-4.515 5.143-4.515 4.811 0 7.623 6.892 8.591 9.791-.422.633-.67 1.392-.67 2.209v.431c-1.238.847-1.986 2.24-1.998 3.769-2.427 1.874-4.42 4.811-5.809 8.403l-6.89-1.378 1.898-7.591-6.482-5.402-1.28 1.536 5.518 4.598-2.102 8.409 8.681 1.736c-.659 2.128-1.123 4.431-1.356 6.844l-14.345 1.792 2.136 8.546-4.6 4.6 1.414 1.414 5.4-5.4-1.864-7.454 11.714-1.464c-.021.533-.035 1.07-.035 1.611 0 2.321.212 4.562.603 6.675l-7.749 1.55 2.102 8.409-5.518 4.598 1.28 1.536 6.482-5.402-1.898-7.591 5.723-1.145c2.084 8.417 7.113 14.37 12.975 14.37 5.866 0 10.897-5.96 12.977-14.385l5.798 1.16-1.898 7.591 6.482 5.402 1.28-1.536-5.518-4.598 2.102-8.409-7.825-1.565c.391-2.109.602-4.345.602-6.66 0-.544-.014-1.085-.036-1.622l11.793 1.474-1.864 7.454zm-33.293-33.471c0-.998.555-1.895 1.447-2.341l.553-.277v-1.618c0-1.103.897-2 2-2s2 .897 2 2v1.618l.553.276c.892.447 1.447 1.344 1.447 2.342v.212c-.996.6-2.824 1.552-4 1.552s-3.004-.952-4-1.552zm4 41.764c-6.617 0-12-9.42-12-21 0-8.123 2.66-15.4 6.839-18.917.947.584 3.307 1.917 5.161 1.917s4.214-1.333 5.161-1.917c4.179 3.517 6.839 10.794 6.839 18.917 0 11.58-5.383 21-12 21z"/></g></svg>